<?xml version="1.0" encoding="UTF-8"?>
<svg version="1.1" xmlns="http://www.w3.org/2000/svg" width="512" height="512">
<path d="M0 0 C1.06992188 0.00451172 2.13984375 0.00902344 3.2421875 0.01367188 C5.86984986 0.02540251 8.49739538 0.04181772 11.125 0.0625 C10.72885498 0.51850586 10.33270996 0.97451172 9.92456055 1.44433594 C-0.51171259 13.52525745 -4.35505926 23.59005886 -4.24681091 39.69371033 C-4.25063548 40.91970792 -4.25446004 42.14570551 -4.2584005 43.40885454 C-4.26603286 46.78148972 -4.26042708 50.15361809 -4.24910367 53.52621019 C-4.24019842 57.17523602 -4.24876891 60.82422636 -4.25531006 64.47325134 C-4.26444068 70.78803314 -4.26315758 77.10274215 -4.25512505 83.41752434 C-4.24386137 92.56055114 -4.25296298 101.70347496 -4.26768685 110.84649283 C-4.2914282 125.69998759 -4.30481947 140.55346961 -4.30883789 155.40698242 C-4.30908276 156.29479861 -4.30932763 157.1826148 -4.30957992 158.09733451 C-4.31212573 168.00192199 -4.31269253 177.90650848 -4.31164551 187.81109619 C-4.31131246 191.40327962 -4.31102707 194.99546305 -4.31079102 198.58764648 C-4.31072823 199.47407036 -4.31066544 200.36049424 -4.31060075 201.27377944 C-4.30999521 216.0728558 -4.32490489 230.87187336 -4.35162407 245.6709252 C-4.36739777 254.7870206 -4.36972022 263.90292575 -4.35449005 273.01902307 C-4.34500286 279.26807999 -4.34981461 285.51702248 -4.36570387 291.76606601 C-4.3743716 295.36663461 -4.37660299 298.96689874 -4.36117744 302.56745148 C-4.34455011 306.47988471 -4.35904394 310.39186789 -4.37620544 314.30430603 C-4.36639867 315.4291331 -4.35659189 316.55396018 -4.34648794 317.71287292 C-4.46446296 330.76883739 -8.50460196 340.44873976 -17.53125 349.7734375 C-26.94198479 358.51831842 -37.13172911 360.55324171 -49.53515625 360.33984375 C-60.10476714 359.87969825 -69.98495031 354.53392779 -77.125 346.8125 C-84.99205735 336.89126657 -87.18677868 326.16718415 -87.13569641 313.79345703 C-87.13952196 312.7972915 -87.14334751 311.80112597 -87.14728898 310.7747736 C-87.15755851 307.45656529 -87.15363825 304.13853198 -87.1496582 300.8203125 C-87.15400818 298.43280376 -87.15919228 296.04529642 -87.16514587 293.65779114 C-87.17713259 287.85601523 -87.17969027 282.05429322 -87.17734561 276.25250643 C-87.17555773 271.53032174 -87.17732216 266.80815104 -87.18157005 262.08596802 C-87.18216524 261.41213221 -87.18276043 260.73829641 -87.18337366 260.04404134 C-87.18458551 258.67476757 -87.18579965 257.30549381 -87.18701603 255.93622005 C-87.19788077 243.10771198 -87.19573492 230.27923022 -87.18963119 217.45072067 C-87.18447052 205.74863146 -87.19569685 194.04662571 -87.21472941 182.34455299 C-87.23416804 170.29937594 -87.24235281 158.25423823 -87.23860615 146.20904541 C-87.23670225 139.45861058 -87.23910137 132.70824664 -87.25332069 125.95782471 C-87.26596463 119.60150837 -87.26389309 113.24535782 -87.25090981 106.88904381 C-87.24855822 104.56764353 -87.25122727 102.24623135 -87.25953293 99.92484474 C-87.35795606 70.25538249 -81.71497719 45.45747618 -60.625 23.4375 C-55.55401031 18.38130214 -50.12834886 14.52884101 -43.875 11.0625 C-42.92882812 10.52882813 -41.98265625 9.99515625 -41.0078125 9.4453125 C-27.86935941 2.44046085 -14.72412429 -0.11786553 0 0 Z " fill="#000000" transform="translate(196.875,75.9375)"/>
<path d="M0 0 C1.47262589 -0.00570996 2.94524737 -0.01267663 4.41786194 -0.02079773 C8.39940195 -0.03867664 12.38072092 -0.03757058 16.36228895 -0.03185534 C19.69458895 -0.02875541 23.02684698 -0.03486496 26.35914099 -0.04089409 C34.22530298 -0.05492082 42.09135632 -0.05339389 49.95751953 -0.04199219 C58.05327917 -0.03051648 66.14870731 -0.04458154 74.24442327 -0.07138866 C81.21285968 -0.09359303 88.18119241 -0.10017229 95.14966166 -0.09431225 C99.30378767 -0.09095232 103.45770131 -0.09329305 107.61179733 -0.11056328 C111.52063808 -0.12610587 115.42899046 -0.1219967 119.33781242 -0.10325813 C120.76556878 -0.09959216 122.19336192 -0.10262213 123.62108421 -0.11314392 C135.5669239 -0.19440287 145.58097284 1.86105816 154.38916016 10.40405273 C156.7166024 13.24870437 158.61084555 16.19089862 160.38916016 19.40405273 C160.73076172 20.00733398 161.07236328 20.61061523 161.42431641 21.23217773 C164.80735684 28.47031076 164.50861223 37.69223468 162.69775391 45.31420898 C158.99914437 55.32676283 152.65382855 62.17855379 143.38916016 67.40405273 C138.77047341 69.24684207 134.90676069 69.65159543 129.94802856 69.64456177 C128.85615559 69.64712504 128.85615559 69.64712504 127.74222457 69.6497401 C125.31470169 69.65302189 122.88745815 69.64205312 120.45996094 69.63110352 C118.7152558 69.63053912 116.97055019 69.63085652 115.22584534 69.63198853 C110.49697087 69.63256192 105.76819804 69.62080967 101.03934717 69.60684061 C96.0945859 69.59433113 91.14982226 69.59316258 86.20504761 69.59078979 C76.84478482 69.58457567 67.48456879 69.56816575 58.12432659 69.54809082 C47.4665975 69.52572973 36.80886618 69.51473785 26.15111947 69.50469995 C4.23044027 69.48379948 -17.69019684 69.4486248 -39.61083984 69.40405273 C-39.68551101 63.60574088 -39.73968658 57.80771467 -39.77563477 52.0090332 C-39.79063545 50.04023354 -39.81104268 48.0714668 -39.8371582 46.1027832 C-39.87392799 43.25781076 -39.89065371 40.41328361 -39.90380859 37.56811523 C-39.91929245 36.70102936 -39.93477631 35.83394348 -39.95072937 34.94058228 C-39.95338999 25.07606795 -37.50135473 16.63676023 -30.61083984 9.40405273 C-21.24174597 0.84966268 -12.2872962 -0.04311266 0 0 Z " fill="#000000" transform="translate(238.61083984375,75.595947265625)"/>
<path d="M0 0 C24.72485269 -0.20054405 24.72485269 -0.20054405 35.31640625 -0.24414062 C42.52541656 -0.2739554 49.73410739 -0.30911252 56.94287109 -0.37719727 C62.75897967 -0.43178098 68.57474532 -0.46147619 74.39109039 -0.47438622 C76.60293216 -0.48357886 78.81475652 -0.50152941 81.02645111 -0.52865028 C95.37290845 -0.69747409 106.57874933 -0.71107302 118 9 C125.47097941 17.69073115 128.6853206 26.54392413 128.34765625 37.98046875 C127.2700886 47.33956756 123.08263288 55.44529844 116.08203125 61.71875 C107.43086745 68.54597405 99.23415533 70.15673723 88.4362793 70.11352539 C87.47969925 70.11367142 86.5231192 70.11381744 85.53755188 70.1139679 C82.38308425 70.11327253 79.22867604 70.1054977 76.07421875 70.09765625 C73.88418103 70.09579074 71.6941429 70.09436746 69.50410461 70.09336853 C63.74525802 70.08955387 57.98643671 70.07973253 52.2276001 70.06866455 C45.3150866 70.05662745 38.40256463 70.05204319 31.49004364 70.04621124 C20.99334484 70.03652023 10.49670153 70.0173563 0 70 C0 46.9 0 23.8 0 0 Z " fill="#000000" transform="translate(199,224)"/>
</svg>
